<?xml version="1.0" encoding="UTF-8" standalone="no"?>
<!DOCTYPE svg PUBLIC "-//W3C//DTD SVG 1.1//EN" "http://www.w3.org/Graphics/SVG/1.1/DTD/svg11.dtd">
<svg width="100%" height="100%" viewBox="0 0 1080 1080" version="1.1" xmlns="http://www.w3.org/2000/svg" xmlns:xlink="http://www.w3.org/1999/xlink" xml:space="preserve" xmlns:serif="http://www.serif.com/" style="fill-rule:evenodd;clip-rule:evenodd;stroke-linejoin:round;stroke-miterlimit:2;">
    <g id="Breast_Cut">
        <path d="M643.75,703.47C658.97,646.8 681.55,593.37 710.93,544.57C725.49,520.38 747.17,484.36 780.62,449.67C781.79,453.84 782.79,458.23 783.63,462.92C788.74,491.43 786.47,521.09 776.89,551.07C770.27,571.78 761.62,585.95 754.68,597.34C750.56,604.1 735.43,628.01 713.75,651.89C689.62,678.46 666.11,695.78 643.75,703.47Z" style="fill:rgb(189,66,85);fill-rule:nonzero;"/>
        <path d="M827.11,278.06C826.18,276.57 825.32,276.15 823.62,275.33C821.75,274.42 819.19,273.18 816.51,270.16C810.91,263.84 810.05,255.76 809.53,250.94C809.11,246.98 809.41,244.99 809.66,243.39C809.73,242.92 809.79,242.54 809.82,242.15C786.17,232.98 766.3,228.33 750.74,228.33C738.08,228.33 728.12,231.43 721.14,237.53C707.25,249.67 709.65,270.09 713.28,301C715.67,321.36 718.64,346.69 717.51,376.67C716.85,394.13 708.38,549.07 615.76,611.83C588.26,630.47 567.66,631.21 539.15,632.24C511.72,633.23 474.15,634.59 412.68,653.34C354.14,671.2 311.22,693.44 273.35,713.07C221.36,740.01 171.24,771.53 124.33,806.78C124.61,807.03 124.89,807.28 125.17,807.53C127.76,809.83 130.69,812.43 133.63,812.52L133.79,812.52C137.07,812.52 140.84,809.51 144.99,803.57L145.24,803.21C153.98,790.83 177.08,782.13 223.1,764.77C256.71,752.1 275.22,745.12 302.59,738.62C329.6,732.21 350.94,727.14 377.21,727.14C381.31,727.14 385.53,727.27 389.75,727.52C407.37,728.57 420.61,731.45 437.38,736.06C438.48,736.05 439.58,736.05 440.68,736.05C480.79,736.05 519.72,741.69 556.47,752.83C557.51,750.27 558.57,748.37 559.01,747.58C563.53,739.44 571.21,732.12 594,722.82C608.62,716.85 615.96,713.86 632.75,710.6C634.52,710.26 636.29,709.85 638.08,709.39C650.71,660.24 671.75,601.95 707.52,542.53C724.47,514.37 747.05,477.54 782.46,442.12C780.19,435.5 777.66,429.98 775.06,424.31C769.38,411.96 763.51,399.19 760.55,374C759.12,361.82 757.99,343.12 764.7,321.35C767.95,310.82 773.99,291.22 791.67,281.98C795,280.24 800.57,277.33 807.65,277.33C808.79,277.33 809.94,277.41 811.06,277.56C818.04,278.51 822.84,282.09 826.35,284.7C827.07,285.24 827.96,285.9 828.66,286.35C829.04,284.57 828.91,280.94 827.11,278.06ZM776,261C771.03,261 767,256.97 767,252C767,247.03 771.03,243 776,243C780.97,243 785,247.03 785,252C785,256.97 780.97,261 776,261Z" style="fill:rgb(179,25,48);fill-rule:nonzero;"/>
    </g>
    <g id="Back_Cut">
        <path d="M884.5,219.5C883.36,215.39 880.02,203.32 868.5,194.5C857.75,186.27 846.38,185.86 836.5,185.5C828.83,185.22 810.58,184.56 796.5,195.5C792.55,198.57 791.05,200.9 786.5,202.5C776.16,206.13 765.85,200.42 761.5,198.5C743.9,190.72 722.03,199.89 701.5,208.5C659.02,226.31 636.28,265.31 617.5,297.5C609.06,311.97 610.3,312.61 603.5,322.5C597.5,331.23 580.27,354.39 539.5,378.5C518.42,390.97 503.76,396.17 491.5,401.5C491.5,401.5 413.75,435.27 307.5,577.5C298.86,589.07 291.5,600.5 291.5,600.5C281.54,615.98 275.37,627.97 273.5,631.5C260.91,655.23 241.25,675.71 216.5,701.5C216.5,701.5 189.63,729.49 148.5,762.5C136.14,772.42 129.97,777.37 127.5,778.5C124.45,779.89 120.45,781.37 117.5,785.5C113.36,791.31 114.41,797.98 114.5,798.5C115.07,801.76 116.52,804.26 118.26,806.32C158.91,775.5 209.92,741.41 271.5,709.5C310.16,689.47 352.61,667.47 411.5,649.5C535.87,611.55 560.59,644.35 613.5,608.5C705.25,546.33 712.91,392.18 713.5,376.5C716.36,300.92 693.03,256.77 718.5,234.5C738.68,216.85 776.27,224.52 813.65,239.34C813.61,239.07 813.56,238.8 813.5,238.5C812.93,235.55 811.26,226.91 804.5,221.5C802.32,219.75 800.55,219.1 799.97,216.97C798.9,213.07 803.09,208.9 803.5,208.5C808.6,203.54 816.36,204.12 821.5,204.5C824.14,204.7 833.15,205.48 842.5,211.5C847.87,214.96 851.95,217.58 853.5,222.5C854.51,225.7 853.78,227.73 855.5,233.5C856.54,236.99 857.06,238.73 858.5,240.5C862.99,246.01 871.09,245.53 871.5,245.5C876.99,245.09 881.93,241.88 884.5,237.5C887.88,231.72 886.17,225.55 884.5,219.5Z" style="fill:rgb(132,16,33);fill-rule:nonzero;"/>
        <path d="M436.85,740.05C441.72,741.39 446.86,742.87 452.5,744.5C510.25,761.14 527.65,779.53 548.5,787.5C549.41,787.85 554.42,789.74 558.5,794.5C559.86,796.09 563.65,800.5 562.5,804.5C561.58,807.68 557.94,809.21 554.5,810.5C539.13,816.26 526.99,820.81 513.5,821.5C512.43,821.55 508.23,821.74 504.5,824.5C503.27,825.41 500.36,827.56 500.5,830.5C500.65,833.7 504.34,836.27 507.5,836.5C510.99,836.75 513.78,834.13 514.5,833.5C522.91,826.1 547.68,826.3 572.5,826.5C577.8,826.54 590.77,827.53 616.5,829.5C616.5,829.5 636.52,831.03 646.5,836.5C648.16,837.41 648.94,837.77 650.5,838.5C652.9,839.62 654.13,840.19 655.5,840.5C657.11,840.87 659.29,841.37 661.5,840.5C664.21,839.43 666.56,836.45 666.5,833.5C666.41,829.12 661.04,826.33 657.5,824.5C654.93,823.17 652.81,822.59 652.5,822.5C643.79,820.1 632.71,814.28 625.5,810.5C609.28,801.99 613.1,798.65 599.5,792.5C590.91,788.61 587.91,789.28 575.5,783.5C562.41,777.4 560.34,774.15 559.5,772.5C557.03,767.69 557.64,762.21 558.95,757.77C515.12,743.99 473.33,739.73 436.85,740.05Z" style="fill:rgb(132,16,33);fill-rule:nonzero;"/>
    </g>
</svg>
